<svg width="36" height="34" viewBox="0 0 36 34" fill="none" xmlns="http://www.w3.org/2000/svg">
<path d="M0.241442 33.8984V18.1279C0.241442 16.0458 0.434235 13.9507 0.81982 11.8429C1.23111 9.7093 1.93802 7.76852 2.94054 6.02054C3.94306 4.24684 5.31832 2.82018 7.06631 1.74054C8.84 0.660898 11.0764 0.121077 13.7755 0.121077H15.395V7.29297H13.8912C11.552 7.34438 10.0353 8.25693 9.34126 10.0306C8.67291 11.7786 8.27448 14.1692 8.14595 17.2025L8.10739 20.6342H11.9632V33.8984H0.241442ZM20.4461 33.8984V18.1279C20.4461 16.0458 20.6389 13.9507 21.0245 11.8429C21.4358 9.7093 22.1427 7.76852 23.1452 6.02054C24.1477 4.24684 25.523 2.82018 27.271 1.74054C29.0447 0.660898 31.2811 0.121077 33.9802 0.121077H35.5996V7.29297H34.0959C31.7566 7.34438 30.24 8.25693 29.5459 10.0306C28.8776 11.7786 28.4792 14.1692 28.3506 17.2025L28.3121 20.6342H32.1679V33.8984H20.4461Z" fill="#54636D"/>
</svg>
