<svg width="20" height="20" viewBox="0 0 20 20" fill="none" xmlns="http://www.w3.org/2000/svg">
<path d="M10.0131 5.00024C8.68305 5.00024 7.40753 5.52858 6.46708 6.46903C5.52663 7.40948 4.99829 8.68501 4.99829 10.015C4.99829 11.345 5.52663 12.6205 6.46708 13.561C7.40753 14.5014 8.68305 15.0298 10.0131 15.0298C11.343 15.0298 12.6186 14.5014 13.559 13.561C14.4995 12.6205 15.0278 11.345 15.0278 10.015C15.0278 8.68501 14.4995 7.40948 13.559 6.46903C12.6186 5.52858 11.343 5.00024 10.0131 5.00024ZM10.0131 13.2718C9.14901 13.2718 8.32036 12.9285 7.7094 12.3176C7.09843 11.7066 6.75519 10.878 6.75519 10.0139C6.75519 9.14988 7.09843 8.32123 7.7094 7.71027C8.32036 7.0993 9.14901 6.75606 10.0131 6.75606C10.8771 6.75606 11.7057 7.0993 12.3167 7.71027C12.9277 8.32123 13.2709 9.14988 13.2709 10.0139C13.2709 10.878 12.9277 11.7066 12.3167 12.3176C11.7057 12.9285 10.8771 13.2718 10.0131 13.2718Z" fill="#FDFDFD"/>
<path d="M15.2262 5.98517C15.8719 5.98517 16.3953 5.46175 16.3953 4.81607C16.3953 4.1704 15.8719 3.64697 15.2262 3.64697C14.5806 3.64697 14.0571 4.1704 14.0571 4.81607C14.0571 5.46175 14.5806 5.98517 15.2262 5.98517Z" fill="#FDFDFD"/>
<path d="M19.2684 3.62727C19.0173 2.97893 18.6336 2.39015 18.1419 1.89863C17.6502 1.4071 17.0613 1.02366 16.4128 0.772845C15.6541 0.488007 14.8524 0.33399 14.0421 0.317352C12.9977 0.271803 12.667 0.258789 10.0186 0.258789C7.37023 0.258789 7.03078 0.258789 5.99507 0.317352C5.18537 0.333139 4.38431 0.487188 3.62651 0.772845C2.9779 1.02337 2.38883 1.40671 1.89708 1.89827C1.40533 2.38983 1.02177 2.97876 0.771 3.62727C0.486105 4.386 0.332441 5.1877 0.316592 5.998C0.269958 7.0413 0.255859 7.37207 0.255859 10.0215C0.255859 12.6699 0.255859 13.0072 0.316592 14.045C0.332859 14.8563 0.485775 15.6566 0.771 16.4169C1.02247 17.0651 1.40641 17.6538 1.89828 18.1453C2.39014 18.6368 2.97913 19.0203 3.62759 19.2713C4.38396 19.5676 5.18535 19.7326 5.99724 19.7593C7.04162 19.8049 7.37239 19.819 10.0208 19.819C12.6691 19.819 13.0086 19.819 14.0443 19.7593C14.8545 19.7428 15.6561 19.5892 16.415 19.3049C17.0633 19.0535 17.652 18.6697 18.1437 18.1781C18.6353 17.6864 19.0191 17.0977 19.2705 16.4494C19.5557 15.6902 19.7087 14.8899 19.7249 14.0787C19.7716 13.0354 19.7857 12.7046 19.7857 10.0551C19.7857 7.40569 19.7857 7.06949 19.7249 6.03162C19.7123 5.20986 19.5578 4.39645 19.2684 3.62727ZM17.9474 13.9648C17.9404 14.5898 17.8263 15.209 17.6101 15.7954C17.4473 16.2172 17.1979 16.6001 16.8782 16.9197C16.5584 17.2393 16.1753 17.4884 15.7535 17.651C15.1735 17.8662 14.5609 17.9803 13.9423 17.9883C12.9121 18.036 12.6214 18.048 9.97955 18.048C7.33552 18.048 7.06548 18.048 6.01568 17.9883C5.39743 17.9807 4.78511 17.8666 4.20563 17.651C3.78234 17.4894 3.39768 17.2408 3.07654 16.9211C2.75541 16.6015 2.50495 16.218 2.34137 15.7954C2.1282 15.2153 2.01418 14.6034 2.00408 13.9854C1.95745 12.9551 1.94661 12.6645 1.94661 10.0226C1.94661 7.37966 1.94661 7.10962 2.00408 6.05873C2.01109 5.43408 2.12518 4.81526 2.34137 4.22917C2.67214 3.37349 3.34996 2.70001 4.20563 2.37249C4.7854 2.15791 5.39753 2.04385 6.01568 2.03521C7.04704 1.98858 7.33661 1.97556 9.97955 1.97556C12.6225 1.97556 12.8936 1.97556 13.9423 2.03521C14.561 2.04265 15.1736 2.15675 15.7535 2.37249C16.1753 2.53547 16.5583 2.78483 16.8781 3.10457C17.1978 3.42431 17.4472 3.80737 17.6101 4.22917C17.8233 4.80933 17.9373 5.42122 17.9474 6.03921C17.9941 7.07058 18.006 7.36014 18.006 10.0031C18.006 12.6449 18.006 12.9291 17.9594 13.9659H17.9474V13.9648Z" fill="#FDFDFD"/>
</svg>
