<svg width="85" height="85" viewBox="0 0 85 85" fill="none" xmlns="http://www.w3.org/2000/svg">
<circle cx="42.5" cy="42.5" r="42.5" fill="#FDFDFD" fill-opacity="0.3"/>
<circle cx="42.5" cy="42.5" r="33.5" fill="black" fill-opacity="0.4"/>
<path d="M37.1552 29.0008C37.53 29.011 37.8953 29.126 38.2131 29.3337H38.2173L55.0181 40.3179C55.3152 40.5132 55.5606 40.7832 55.7321 41.1032C55.9036 41.4232 55.9957 41.7831 55.9999 42.1498C56.004 42.5166 55.9202 42.8786 55.7561 43.2028C55.5919 43.527 55.3526 43.803 55.0601 44.0057L38.2593 55.6353C37.9429 55.8543 37.5755 55.9795 37.1963 55.9977C36.8171 56.0159 36.4404 55.9263 36.106 55.7385C35.7717 55.5507 35.4923 55.2717 35.2975 54.9312C35.1028 54.5906 34.9999 54.2013 35 53.8046V31.1951C35 30.8033 35.1003 30.4186 35.2906 30.081C35.4809 29.7433 35.7541 29.4651 36.082 29.2752C36.4099 29.0852 36.7805 28.9905 37.1552 29.0008Z" fill="#FDFDFD"/>
</svg>
